Coordinates
version=1
nRows=9
nColumns=36
inDegrees=yes

Units are S.I. units (second, meters, Newtons, ...)
If the header above contains a line with 'inDegrees', this indicates whether rotational values are in degrees (yes) or radians (no).

endheader
time	pelvis_tilt	pelvis_list	pelvis_rotation	pelvis_tx	pelvis_ty	pelvis_tz	hip_flexion_r	hip_adduction_r	hip_rotation_r	knee_angle_r	knee_angle_r_beta	ankle_angle_r	subtalar_angle_r	mtp_angle_r	hip_flexion_l	hip_adduction_l	hip_rotation_l	knee_angle_l	knee_angle_l_beta	ankle_angle_l	subtalar_angle_l	mtp_angle_l	lumbar_extension	lumbar_bending	lumbar_rotation	arm_flex_r	arm_add_r	arm_rot_r	elbow_flex_r	pro_sup_r	arm_flex_l	arm_add_l	arm_rot_l	elbow_flex_l	pro_sup_l
     10.08000000	     -9.58158099	      3.19709059	     -3.09527245	     -0.53904651	      0.57228978	     -0.55819609	     98.17907903	      0.19921406	      2.53126123	     97.43377236	      1.70054013	     16.99310425	     -3.08348271	     -7.49999987	     98.38341043	    -10.83064504	      0.33882851	     96.34455685	      1.68152973	     -1.00459239	    -22.67699908	     -7.49999987	    -28.98405918	      0.79286342	     -2.15343056	     42.89859309	    -11.86541630	     10.61498524	    115.56569532	    103.69980961	     29.82564471	     -7.81129175	      0.18775922	    122.67256680	    104.32506854
     10.09000000	     -8.19311037	      2.91522899	     -2.93713701	     -0.54356026	      0.57446994	     -0.55863784	     96.85585328	     -0.02911623	      2.38165539	     97.14339385	      1.69547207	     16.22462489	     -3.04785823	     -7.49999987	     97.11571697	    -10.73954450	      0.39077136	     96.00734514	      1.67564428	     -1.35992663	    -22.46137177	     -7.49999987	    -29.64211884	      1.07840199	     -2.18273969	     41.66960219	    -11.74033463	     10.37256899	    115.45614149	    103.68540070	     28.75944166	     -7.36700310	     -0.02616048	    122.28276884	    104.32849225
     10.10000000	     -7.01448275	      2.67903612	     -2.74775887	     -0.54788743	      0.57641686	     -0.55935223	     95.69367438	     -0.26887258	      2.25117566	     96.79113963	      1.68932407	     15.59824935	     -3.10402934	     -7.49999987	     96.04338612	    -10.62851516	      0.38046357	     95.64591447	      1.66933612	     -1.70481475	    -22.25788793	     -7.49999987	    -30.01993167	      1.34065793	     -2.27415801	     40.24910618	    -11.69506651	     10.29262871	    115.37197442	    103.66982858	     27.42848678	     -6.95147451	     -0.15072273	    121.89747448	    104.33124356
     10.11000000	     -5.70752373	      2.40621107	     -2.57295127	     -0.55236498	      0.57880183	     -0.56018891	     94.24851003	     -0.38273092	      2.17427959	     96.29265774	      1.68062392	     14.84281326	     -3.45242087	     -7.49999987	     94.84952574	    -10.50891767	      0.43375224	     95.30822132	      1.66344227	     -2.27227214	    -22.03600783	     -7.49999987	    -30.57171220	      1.64983764	     -2.31708580	     38.90624436	    -11.49544558	     10.01566322	    115.22958914	    103.62284971	     26.22797008	     -6.38391777	     -0.38646712	    121.31235695	    104.33179441
     10.12000000	     -4.40545090	      2.16885309	     -2.36441630	     -0.55671995	      0.58127996	     -0.56097280	     92.77400544	     -0.52408666	      2.10084073	     95.79410207	      1.67192249	     14.27177429	     -3.85135511	     -7.49999987	     93.62320413	    -10.40836439	      0.41165725	     94.91933858	      1.65665498	     -2.84242687	    -21.86969467	     -7.49999987	    -31.05293481	      1.91444252	     -2.37240990	     37.53730856	    -11.22030414	      9.71914768	    115.04646015	    103.56807445	     24.96687759	     -5.89088545	     -0.48471487	    120.64733075	    104.31019272
     10.13000000	     -3.07143514	      2.07137302	     -2.02615898	     -0.56085788	      0.58354185	     -0.56199390	     91.38834620	     -0.84736534	      2.14640551	     95.46290683	      1.66614204	     13.62650973	     -4.27949205	     -7.49999987	     92.34789524	    -10.13511685	      0.25574605	     94.55629566	      1.65031869	     -3.48042039	    -21.77565073	     -7.49999987	    -31.47528333	      2.11095917	     -2.50803752	     36.03460863	    -11.01381325	      9.34407035	    114.96879550	    103.51071836	     23.77229546	     -5.38809919	     -0.51337733	    119.84785199	    104.26672542
     10.14000000	     -1.87157841	      2.12089447	     -1.62164908	     -0.56469785	      0.58510895	     -0.56330130	     90.27626461	     -1.33919553	      2.28693335	     95.30243669	      1.66334131	     13.05024499	     -4.48803899	     -7.49999987	     91.21563555	     -9.72776426	      0.02087840	     94.21310826	      1.64432894	     -4.06158831	    -21.64592730	     -7.49999987	    -31.63387089	      2.27676633	     -2.71774820	     34.42951874	    -10.91755581	      9.06322837	    115.00426889	    103.47975722	     22.48668292	     -4.98468427	     -0.48553839	    119.07262852	    104.21337914
     10.15000000	     -0.64673234	      2.30713655	     -1.24064563	     -0.56851605	      0.58634239	     -0.56431479	     89.18379257	     -1.72481379	      2.64781263	     95.17801363	      1.66116971	     12.33471609	     -4.80032643	     -7.49999987	     90.08321358	     -9.29045866	     -0.25308144	     93.92740761	      1.63934252	     -4.89154031	    -21.59754400	     -7.49999987	    -31.74498708	      2.20050162	     -2.78523842	     32.70180628	    -10.80314543	      8.43334963	    115.12120271	    103.44407556	     21.41616046	     -4.55472158	     -0.33838468	    118.07776039	    104.16944334
     10.16000000	      0.54188756	      2.37693825	     -0.95821070	     -0.57209380	      0.58716400	     -0.56486043	     88.13488908	     -1.94866088	      2.83632442	     95.10557596	      1.65990544	     11.80150951	     -5.04231549	     -7.49999987	     89.08085880	     -9.08431661	     -0.44649367	     93.74535234	      1.63616506	     -5.64507002	    -21.57309976	     -7.49999987	    -31.75433665	      2.17903016	     -2.72570691	     30.95043994	    -10.67927227	      7.79070171	    115.22686905	    103.43074331	     20.32684443	     -4.33212078	     -0.04429476	    117.18519552	    104.15744201
